<mxfile host="65bd71144e">
    <diagram name="Taker" id="1mNBpgwIqNvZvp9druG3">
        <mxGraphModel dx="1002" dy="571" grid="1" gridSize="10" guides="1" tooltips="1" connect="1" arrows="1" fold="1" page="1" pageScale="1" pageWidth="827" pageHeight="1169" math="0" shadow="0">
            <root>
                <mxCell id="0"/>
                <mxCell id="1" parent="0"/>
                <mxCell id="Rf_rX7RwyzbVk39Sd0Md-18" style="edgeStyle=orthogonalEdgeStyle;rounded=0;orthogonalLoop=1;jettySize=auto;html=1;entryX=0.5;entryY=0;entryDx=0;entryDy=0;" parent="1" source="Rf_rX7RwyzbVk39Sd0Md-1" target="Rf_rX7RwyzbVk39Sd0Md-2" edge="1">
                    <mxGeometry relative="1" as="geometry"/>
                </mxCell>
                <mxCell id="Rf_rX7RwyzbVk39Sd0Md-1" value="Странца Binance p2p" style="ellipse;whiteSpace=wrap;html=1;" parent="1" vertex="1">
                    <mxGeometry x="140" y="80" width="120" height="80" as="geometry"/>
                </mxCell>
                <mxCell id="Rf_rX7RwyzbVk39Sd0Md-19" style="edgeStyle=orthogonalEdgeStyle;rounded=0;orthogonalLoop=1;jettySize=auto;html=1;entryX=0.5;entryY=0;entryDx=0;entryDy=0;" parent="1" source="Rf_rX7RwyzbVk39Sd0Md-2" target="Rf_rX7RwyzbVk39Sd0Md-3" edge="1">
                    <mxGeometry relative="1" as="geometry"/>
                </mxCell>
                <mxCell id="Rf_rX7RwyzbVk39Sd0Md-2" value="настройка валюты, банка, объема" style="rounded=0;whiteSpace=wrap;html=1;" parent="1" vertex="1">
                    <mxGeometry x="140" y="200" width="120" height="60" as="geometry"/>
                </mxCell>
                <mxCell id="Rf_rX7RwyzbVk39Sd0Md-20" style="edgeStyle=orthogonalEdgeStyle;rounded=0;orthogonalLoop=1;jettySize=auto;html=1;entryX=0.5;entryY=0;entryDx=0;entryDy=0;" parent="1" source="Rf_rX7RwyzbVk39Sd0Md-3" target="Rf_rX7RwyzbVk39Sd0Md-5" edge="1">
                    <mxGeometry relative="1" as="geometry"/>
                </mxCell>
                <mxCell id="Rf_rX7RwyzbVk39Sd0Md-3" value="Нажатие кнопки &quot;Купить&quot; у продавца с наименьшей ценой" style="rounded=0;whiteSpace=wrap;html=1;" parent="1" vertex="1">
                    <mxGeometry x="140" y="300" width="120" height="60" as="geometry"/>
                </mxCell>
                <mxCell id="Rf_rX7RwyzbVk39Sd0Md-23" style="edgeStyle=orthogonalEdgeStyle;rounded=0;orthogonalLoop=1;jettySize=auto;html=1;entryX=0.5;entryY=0;entryDx=0;entryDy=0;" parent="1" source="Rf_rX7RwyzbVk39Sd0Md-4" target="Rf_rX7RwyzbVk39Sd0Md-6" edge="1">
                    <mxGeometry relative="1" as="geometry"/>
                </mxCell>
                <mxCell id="Rf_rX7RwyzbVk39Sd0Md-4" value="ввод объема покупки" style="rounded=0;whiteSpace=wrap;html=1;" parent="1" vertex="1">
                    <mxGeometry x="140" y="500" width="120" height="60" as="geometry"/>
                </mxCell>
                <mxCell id="Rf_rX7RwyzbVk39Sd0Md-21" style="edgeStyle=orthogonalEdgeStyle;rounded=0;orthogonalLoop=1;jettySize=auto;html=1;" parent="1" source="Rf_rX7RwyzbVk39Sd0Md-5" target="Rf_rX7RwyzbVk39Sd0Md-4" edge="1">
                    <mxGeometry relative="1" as="geometry"/>
                </mxCell>
                <mxCell id="Rf_rX7RwyzbVk39Sd0Md-22" style="edgeStyle=orthogonalEdgeStyle;rounded=0;orthogonalLoop=1;jettySize=auto;html=1;entryX=1;entryY=0.5;entryDx=0;entryDy=0;" parent="1" source="Rf_rX7RwyzbVk39Sd0Md-5" target="Rf_rX7RwyzbVk39Sd0Md-4" edge="1">
                    <mxGeometry relative="1" as="geometry">
                        <Array as="points">
                            <mxPoint x="280" y="430"/>
                            <mxPoint x="280" y="530"/>
                        </Array>
                    </mxGeometry>
                </mxCell>
                <mxCell id="Rf_rX7RwyzbVk39Sd0Md-5" value="В крипте или фиате" style="rhombus;whiteSpace=wrap;html=1;" parent="1" vertex="1">
                    <mxGeometry x="160" y="390" width="80" height="80" as="geometry"/>
                </mxCell>
                <mxCell id="Rf_rX7RwyzbVk39Sd0Md-24" style="edgeStyle=orthogonalEdgeStyle;rounded=0;orthogonalLoop=1;jettySize=auto;html=1;entryX=0.5;entryY=0;entryDx=0;entryDy=0;" parent="1" source="Rf_rX7RwyzbVk39Sd0Md-6" target="Rf_rX7RwyzbVk39Sd0Md-10" edge="1">
                    <mxGeometry relative="1" as="geometry"/>
                </mxCell>
                <mxCell id="Rf_rX7RwyzbVk39Sd0Md-6" value="купить" style="rounded=0;whiteSpace=wrap;html=1;" parent="1" vertex="1">
                    <mxGeometry x="140" y="600" width="120" height="60" as="geometry"/>
                </mxCell>
                <mxCell id="Rf_rX7RwyzbVk39Sd0Md-27" style="edgeStyle=orthogonalEdgeStyle;rounded=0;orthogonalLoop=1;jettySize=auto;html=1;entryX=0.5;entryY=0;entryDx=0;entryDy=0;" parent="1" source="Rf_rX7RwyzbVk39Sd0Md-7" target="Rf_rX7RwyzbVk39Sd0Md-13" edge="1">
                    <mxGeometry relative="1" as="geometry"/>
                </mxCell>
                <mxCell id="Rf_rX7RwyzbVk39Sd0Md-7" value="оплачено далее" style="rounded=0;whiteSpace=wrap;html=1;" parent="1" vertex="1">
                    <mxGeometry x="140" y="900" width="120" height="60" as="geometry"/>
                </mxCell>
                <mxCell id="Rf_rX7RwyzbVk39Sd0Md-8" value="Переброс на другую страницу" style="text;html=1;strokeColor=none;fillColor=none;align=center;verticalAlign=middle;whiteSpace=wrap;rounded=0;" parent="1" vertex="1">
                    <mxGeometry x="350" y="660" width="60" height="30" as="geometry"/>
                </mxCell>
                <mxCell id="Rf_rX7RwyzbVk39Sd0Md-9" value="&lt;div style=&quot;text-align: justify;&quot;&gt;class&lt;span style=&quot;font-family: consolas, &amp;quot;lucida console&amp;quot;, &amp;quot;courier new&amp;quot;, monospace; text-align: left;&quot;&gt;=&quot;&lt;/span&gt;&lt;span style=&quot;box-sizing: border-box; min-width: 0px; min-height: 0px; unicode-bidi: -webkit-isolate; word-break: break-all; font-family: consolas, &amp;quot;lucida console&amp;quot;, &amp;quot;courier new&amp;quot;, monospace; text-align: left;&quot; class=&quot;webkit-html-attribute-value&quot;&gt; css-1bx3lzi&lt;/span&gt;&lt;span style=&quot;font-family: consolas, &amp;quot;lucida console&amp;quot;, &amp;quot;courier new&amp;quot;, monospace; text-align: left;&quot;&gt;&quot;&lt;/span&gt;t&lt;/div&gt;" style="text;html=1;strokeColor=none;fillColor=none;align=center;verticalAlign=middle;whiteSpace=wrap;rounded=0;" parent="1" vertex="1">
                    <mxGeometry x="270" y="915" width="60" height="30" as="geometry"/>
                </mxCell>
                <mxCell id="Rf_rX7RwyzbVk39Sd0Md-25" style="edgeStyle=orthogonalEdgeStyle;rounded=0;orthogonalLoop=1;jettySize=auto;html=1;entryX=0.5;entryY=0;entryDx=0;entryDy=0;" parent="1" source="Rf_rX7RwyzbVk39Sd0Md-10" target="Rf_rX7RwyzbVk39Sd0Md-12" edge="1">
                    <mxGeometry relative="1" as="geometry"/>
                </mxCell>
                <mxCell id="Rf_rX7RwyzbVk39Sd0Md-10" value="Копировать номер карты" style="rounded=0;whiteSpace=wrap;html=1;" parent="1" vertex="1">
                    <mxGeometry x="140" y="700" width="120" height="60" as="geometry"/>
                </mxCell>
                <mxCell id="Rf_rX7RwyzbVk39Sd0Md-26" style="edgeStyle=orthogonalEdgeStyle;rounded=0;orthogonalLoop=1;jettySize=auto;html=1;entryX=0.5;entryY=0;entryDx=0;entryDy=0;" parent="1" source="Rf_rX7RwyzbVk39Sd0Md-12" target="Rf_rX7RwyzbVk39Sd0Md-7" edge="1">
                    <mxGeometry relative="1" as="geometry"/>
                </mxCell>
                <mxCell id="Rf_rX7RwyzbVk39Sd0Md-12" value="Перевод денежных средств" style="rounded=0;whiteSpace=wrap;html=1;" parent="1" vertex="1">
                    <mxGeometry x="140" y="800" width="120" height="60" as="geometry"/>
                </mxCell>
                <mxCell id="Rf_rX7RwyzbVk39Sd0Md-28" style="edgeStyle=orthogonalEdgeStyle;rounded=0;orthogonalLoop=1;jettySize=auto;html=1;entryX=0.5;entryY=0;entryDx=0;entryDy=0;" parent="1" source="Rf_rX7RwyzbVk39Sd0Md-13" target="Rf_rX7RwyzbVk39Sd0Md-14" edge="1">
                    <mxGeometry relative="1" as="geometry"/>
                </mxCell>
                <mxCell id="Rf_rX7RwyzbVk39Sd0Md-13" value="Нажатие чекбокс Я выполнил платеж..." style="rounded=0;whiteSpace=wrap;html=1;" parent="1" vertex="1">
                    <mxGeometry x="140" y="1000" width="120" height="60" as="geometry"/>
                </mxCell>
                <mxCell id="Rf_rX7RwyzbVk39Sd0Md-29" style="edgeStyle=orthogonalEdgeStyle;rounded=0;orthogonalLoop=1;jettySize=auto;html=1;entryX=0.5;entryY=0;entryDx=0;entryDy=0;" parent="1" source="Rf_rX7RwyzbVk39Sd0Md-14" target="Rf_rX7RwyzbVk39Sd0Md-16" edge="1">
                    <mxGeometry relative="1" as="geometry"/>
                </mxCell>
                <mxCell id="Rf_rX7RwyzbVk39Sd0Md-14" value="Подтвердить далее" style="rounded=0;whiteSpace=wrap;html=1;" parent="1" vertex="1">
                    <mxGeometry x="140" y="1100" width="120" height="60" as="geometry"/>
                </mxCell>
                <mxCell id="Rf_rX7RwyzbVk39Sd0Md-30" style="edgeStyle=orthogonalEdgeStyle;rounded=0;orthogonalLoop=1;jettySize=auto;html=1;" parent="1" source="Rf_rX7RwyzbVk39Sd0Md-16" edge="1">
                    <mxGeometry relative="1" as="geometry">
                        <mxPoint x="200" y="1340" as="targetPoint"/>
                    </mxGeometry>
                </mxCell>
                <mxCell id="Rf_rX7RwyzbVk39Sd0Md-31" style="edgeStyle=orthogonalEdgeStyle;rounded=0;orthogonalLoop=1;jettySize=auto;html=1;entryX=1;entryY=0.5;entryDx=0;entryDy=0;" parent="1" source="Rf_rX7RwyzbVk39Sd0Md-16" target="Rf_rX7RwyzbVk39Sd0Md-1" edge="1">
                    <mxGeometry relative="1" as="geometry">
                        <Array as="points">
                            <mxPoint x="480" y="1240"/>
                            <mxPoint x="480" y="120"/>
                        </Array>
                    </mxGeometry>
                </mxCell>
                <mxCell id="Rf_rX7RwyzbVk39Sd0Md-16" value="Посмотреть баланс или ок" style="rhombus;whiteSpace=wrap;html=1;" parent="1" vertex="1">
                    <mxGeometry x="160" y="1200" width="80" height="80" as="geometry"/>
                </mxCell>
                <mxCell id="Rf_rX7RwyzbVk39Sd0Md-32" value="Просмотр баланса или выход с сайта" style="ellipse;whiteSpace=wrap;html=1;" parent="1" vertex="1">
                    <mxGeometry x="140" y="1340" width="120" height="80" as="geometry"/>
                </mxCell>
                <mxCell id="Rf_rX7RwyzbVk39Sd0Md-33" value="&lt;font style=&quot;font-size: 30px;&quot;&gt;Покупка&lt;/font&gt;" style="text;html=1;strokeColor=none;fillColor=none;align=center;verticalAlign=middle;whiteSpace=wrap;rounded=0;" parent="1" vertex="1">
                    <mxGeometry x="135" y="20" width="130" height="30" as="geometry"/>
                </mxCell>
            </root>
        </mxGraphModel>
    </diagram>
    <diagram id="jQp4xLdx5GN2ZFF4jQOv" name="Maker продажа">
        <mxGraphModel dx="1002" dy="571" grid="1" gridSize="10" guides="1" tooltips="1" connect="1" arrows="1" fold="1" page="1" pageScale="1" pageWidth="827" pageHeight="1169" math="0" shadow="0">
            <root>
                <mxCell id="0"/>
                <mxCell id="1" parent="0"/>
            </root>
        </mxGraphModel>
    </diagram>
</mxfile>